<svg xmlns="http://www.w3.org/2000/svg" xmlns:xlink="http://www.w3.org/1999/xlink" version="1.1" width="256" height="256" viewBox="0 0 256 256" xml:space="preserve">

<defs>
</defs>
<g style="stroke: none; stroke-width: 0; stroke-dasharray: none; stroke-linecap: butt; stroke-linejoin: miter; stroke-miterlimit: 10; fill: none; fill-rule: nonzero; opacity: 1;" transform="translate(1.4065934065934016 1.4065934065934016) scale(2.81 2.81)" >
	<path d="M 62.707 34.99 c 0 9.83 -7.968 17.798 -17.798 17.798 S 27.111 44.82 27.111 34.99 s 7.969 -17.798 17.798 -17.798 S 62.707 25.161 62.707 34.99" style="stroke: none; stroke-width: 1; stroke-dasharray: none; stroke-linecap: butt; stroke-linejoin: miter; stroke-miterlimit: 10; fill: rgb(253,182,47); fill-rule: nonzero; opacity: 1;" transform=" matrix(1 0 0 1 0 0) " stroke-linecap="round" />
	<path d="M 79 35.979 h -8.394 c -0.553 0 -1 -0.448 -1 -1 s 0.447 -1 1 -1 H 79 c 0.553 0 1 0.448 1 1 S 79.553 35.979 79 35.979 z" style="stroke: none; stroke-width: 1; stroke-dasharray: none; stroke-linecap: butt; stroke-linejoin: miter; stroke-miterlimit: 10; fill: rgb(0,0,0); fill-rule: nonzero; opacity: 1;" transform=" matrix(1 0 0 1 0 0) " stroke-linecap="round" />
	<path d="M 19.33 35.979 h -8.394 c -0.552 0 -1 -0.448 -1 -1 s 0.448 -1 1 -1 h 8.394 c 0.552 0 1 0.448 1 1 S 19.882 35.979 19.33 35.979 z" style="stroke: none; stroke-width: 1; stroke-dasharray: none; stroke-linecap: butt; stroke-linejoin: miter; stroke-miterlimit: 10; fill: rgb(0,0,0); fill-rule: nonzero; opacity: 1;" transform=" matrix(1 0 0 1 0 0) " stroke-linecap="round" />
	<path d="M 44.968 10.34 c -0.552 0 -1 -0.448 -1 -1 V 0.947 c 0 -0.552 0.448 -1 1 -1 s 1 0.448 1 1 V 9.34 C 45.968 9.893 45.521 10.34 44.968 10.34 z" style="stroke: none; stroke-width: 1; stroke-dasharray: none; stroke-linecap: butt; stroke-linejoin: miter; stroke-miterlimit: 10; fill: rgb(0,0,0); fill-rule: nonzero; opacity: 1;" transform=" matrix(1 0 0 1 0 0) " stroke-linecap="round" />
	<path d="M 63.097 17.85 c -0.256 0 -0.512 -0.098 -0.707 -0.293 c -0.391 -0.391 -0.391 -1.023 0 -1.414 l 5.936 -5.935 c 0.391 -0.391 1.023 -0.391 1.414 0 s 0.391 1.023 0 1.414 l -5.936 5.935 C 63.608 17.752 63.353 17.85 63.097 17.85 z" style="stroke: none; stroke-width: 1; stroke-dasharray: none; stroke-linecap: butt; stroke-linejoin: miter; stroke-miterlimit: 10; fill: rgb(0,0,0); fill-rule: nonzero; opacity: 1;" transform=" matrix(1 0 0 1 0 0) " stroke-linecap="round" />
	<path d="M 26.839 17.85 c -0.256 0 -0.512 -0.098 -0.707 -0.293 l -5.935 -5.935 c -0.391 -0.391 -0.391 -1.023 0 -1.414 s 1.023 -0.391 1.414 0 l 5.935 5.935 c 0.391 0.391 0.391 1.023 0 1.414 C 27.351 17.752 27.095 17.85 26.839 17.85 z" style="stroke: none; stroke-width: 1; stroke-dasharray: none; stroke-linecap: butt; stroke-linejoin: miter; stroke-miterlimit: 10; fill: rgb(0,0,0); fill-rule: nonzero; opacity: 1;" transform=" matrix(1 0 0 1 0 0) " stroke-linecap="round" />
	<path d="M 75.339 86.3 h 2.701 c 0.53 0 0.959 -0.429 0.959 -0.959 v -3.427 c 0 -0.584 -0.411 -1.087 -0.984 -1.203 l -6.772 -1.373 l -5.07 -3.863 c -0.465 -0.355 -1.034 -0.547 -1.619 -0.547 H 54.272 c -1.061 0.238 -2.046 0.763 -2.84 1.53 l -2.157 2.083 l -4.256 0.667 c -0.474 0.074 -0.824 0.483 -0.824 0.963 v 4.399 l 4.204 1.635 L 75.339 86.3 z" style="stroke: none; stroke-width: 1; stroke-dasharray: none; stroke-linecap: butt; stroke-linejoin: miter; stroke-miterlimit: 10; fill: rgb(67,152,209); fill-rule: nonzero; opacity: 1;" transform=" matrix(1 0 0 1 0 0) " stroke-linecap="round" />
	<circle cx="72.569" cy="86.179" r="2.769" style="stroke: none; stroke-width: 1; stroke-dasharray: none; stroke-linecap: butt; stroke-linejoin: miter; stroke-miterlimit: 10; fill: rgb(67,152,209); fill-rule: nonzero; opacity: 1;" transform="  matrix(1 0 0 1 0 0) "/>
	<circle cx="51.178999999999995" cy="86.179" r="2.769" style="stroke: none; stroke-width: 1; stroke-dasharray: none; stroke-linecap: butt; stroke-linejoin: miter; stroke-miterlimit: 10; fill: rgb(67,152,209); fill-rule: nonzero; opacity: 1;" transform="  matrix(1 0 0 1 0 0) "/>
	<path d="M 44.968 53.798 c -10.377 0 -18.82 -8.442 -18.82 -18.819 c 0 -10.377 8.442 -18.82 18.82 -18.82 s 18.82 8.442 18.82 18.82 C 63.788 45.355 55.346 53.798 44.968 53.798 z M 44.968 18.159 c -9.274 0 -16.82 7.545 -16.82 16.82 s 7.545 16.819 16.82 16.819 c 9.275 0 16.82 -7.545 16.82 -16.819 S 54.243 18.159 44.968 18.159 z" style="stroke: none; stroke-width: 1; stroke-dasharray: none; stroke-linecap: butt; stroke-linejoin: miter; stroke-miterlimit: 10; fill: rgb(0,0,0); fill-rule: nonzero; opacity: 1;" transform=" matrix(1 0 0 1 0 0) " stroke-linecap="round" />
	<path d="M 69.032 60.042 c -0.256 0 -0.512 -0.098 -0.707 -0.293 l -5.936 -5.935 c -0.391 -0.391 -0.391 -1.023 0 -1.414 s 1.023 -0.391 1.414 0 l 5.936 5.935 c 0.391 0.391 0.391 1.023 0 1.414 C 69.544 59.944 69.288 60.042 69.032 60.042 z" style="stroke: none; stroke-width: 1; stroke-dasharray: none; stroke-linecap: butt; stroke-linejoin: miter; stroke-miterlimit: 10; fill: rgb(0,0,0); fill-rule: nonzero; opacity: 1;" transform=" matrix(1 0 0 1 0 0) " stroke-linecap="round" />
	<path d="M 20.904 60.042 c -0.256 0 -0.512 -0.098 -0.707 -0.293 c -0.391 -0.391 -0.391 -1.023 0 -1.414 l 5.935 -5.935 c 0.391 -0.391 1.023 -0.391 1.414 0 s 0.391 1.023 0 1.414 l -5.935 5.935 C 21.416 59.944 21.16 60.042 20.904 60.042 z" style="stroke: none; stroke-width: 1; stroke-dasharray: none; stroke-linecap: butt; stroke-linejoin: miter; stroke-miterlimit: 10; fill: rgb(0,0,0); fill-rule: nonzero; opacity: 1;" transform=" matrix(1 0 0 1 0 0) " stroke-linecap="round" />
	<path d="M 18.462 79.863 c -4.373 0 -7.925 -3.552 -7.925 -7.918 c 0 -4.365 3.552 -7.917 7.917 -7.917 h 19.596 c 3.263 0 5.917 -2.655 5.917 -5.918 v -5.313 c 0 -0.553 0.448 -1 1 -1 s 1 0.447 1 1 v 5.313 c 0 4.366 -3.552 7.918 -7.917 7.918 H 18.455 c -3.263 0 -5.917 2.654 -5.917 5.917 s 2.655 5.918 5.917 5.918 l 30.813 -0.222 c 0.002 0 0.005 0 0.007 0 c 0.549 0 0.996 0.443 1 0.993 c 0.004 0.552 -0.44 1.003 -0.993 1.007 L 18.462 79.863 z" style="stroke: none; stroke-width: 1; stroke-dasharray: none; stroke-linecap: butt; stroke-linejoin: miter; stroke-miterlimit: 10; fill: rgb(0,0,0); fill-rule: nonzero; opacity: 1;" transform=" matrix(1 0 0 1 0 0) " stroke-linecap="round" />
	<path d="M 69.807 87.3 H 53.942 c -0.553 0 -1 -0.447 -1 -1 s 0.447 -1 1 -1 h 15.864 c 0.553 0 1 0.447 1 1 S 70.359 87.3 69.807 87.3 z" style="stroke: none; stroke-width: 1; stroke-dasharray: none; stroke-linecap: butt; stroke-linejoin: miter; stroke-miterlimit: 10; fill: rgb(0,0,0); fill-rule: nonzero; opacity: 1;" transform=" matrix(1 0 0 1 0 0) " stroke-linecap="round" />
	<path d="M 78.041 87.3 H 75.34 c -0.553 0 -1 -0.447 -1 -1 s 0.447 -1 1 -1 h 2.701 L 78 81.914 c 0 -0.107 -0.077 -0.201 -0.184 -0.223 l -6.771 -1.374 c -0.147 -0.03 -0.287 -0.094 -0.407 -0.185 l -5.07 -3.863 c -0.288 -0.221 -0.648 -0.342 -1.013 -0.342 H 54.388 c -0.85 0.209 -1.63 0.64 -2.261 1.249 L 49.97 79.26 c -0.147 0.143 -0.336 0.236 -0.539 0.269 l -4.256 0.668 l 0.018 3.688 l 3.57 1.39 c 0.515 0.2 0.77 0.779 0.569 1.294 s -0.781 0.771 -1.294 0.569 l -4.205 -1.636 c -0.384 -0.149 -0.637 -0.52 -0.637 -0.932 v -4.398 c 0 -0.979 0.702 -1.8 1.669 -1.951 l 3.944 -0.618 l 1.93 -1.864 c 0.92 -0.889 2.067 -1.506 3.315 -1.785 c 0.072 -0.017 0.146 -0.024 0.219 -0.024 h 10.282 c 0.801 0 1.591 0.267 2.226 0.751 l 4.888 3.724 l 6.547 1.328 C 79.249 79.941 80 80.859 80 81.914 v 3.427 C 80 86.421 79.121 87.3 78.041 87.3 z" style="stroke: none; stroke-width: 1; stroke-dasharray: none; stroke-linecap: butt; stroke-linejoin: miter; stroke-miterlimit: 10; fill: rgb(0,0,0); fill-rule: nonzero; opacity: 1;" transform=" matrix(1 0 0 1 0 0) " stroke-linecap="round" />
	<path d="M 72.571 89.947 c -2.078 0 -3.769 -1.69 -3.769 -3.769 s 1.69 -3.769 3.769 -3.769 s 3.769 1.69 3.769 3.769 S 74.649 89.947 72.571 89.947 z M 72.571 84.41 c -0.976 0 -1.769 0.793 -1.769 1.769 s 0.793 1.769 1.769 1.769 s 1.769 -0.793 1.769 -1.769 S 73.547 84.41 72.571 84.41 z" style="stroke: none; stroke-width: 1; stroke-dasharray: none; stroke-linecap: butt; stroke-linejoin: miter; stroke-miterlimit: 10; fill: rgb(0,0,0); fill-rule: nonzero; opacity: 1;" transform=" matrix(1 0 0 1 0 0) " stroke-linecap="round" />
	<path d="M 51.178 89.947 c -2.078 0 -3.769 -1.69 -3.769 -3.769 s 1.69 -3.769 3.769 -3.769 s 3.769 1.69 3.769 3.769 S 53.256 89.947 51.178 89.947 z M 51.178 84.41 c -0.976 0 -1.769 0.793 -1.769 1.769 s 0.793 1.769 1.769 1.769 s 1.769 -0.793 1.769 -1.769 S 52.153 84.41 51.178 84.41 z" style="stroke: none; stroke-width: 1; stroke-dasharray: none; stroke-linecap: butt; stroke-linejoin: miter; stroke-miterlimit: 10; fill: rgb(0,0,0); fill-rule: nonzero; opacity: 1;" transform=" matrix(1 0 0 1 0 0) " stroke-linecap="round" />
</g>
</svg>